<?xml version="1.0" encoding="UTF-8"?>
<svg id="Layer_1" data-name="Layer 1" xmlns="http://www.w3.org/2000/svg" viewBox="0 0 612 792">
  <g>
    <line x1="8.3" y1="60.48" x2="8.3" y2="62.48" style="fill: none; stroke: #00afd7; stroke-miterlimit: 10;"/>
    <line x1="8.3" y1="65.48" x2="8.3" y2="717" style="fill: none; stroke: #00afd7; stroke-dasharray: 4.01 3.01; stroke-miterlimit: 10;"/>
    <line x1="8.3" y1="718.5" x2="8.3" y2="720.5" style="fill: none; stroke: #00afd7; stroke-miterlimit: 10;"/>
  </g>
  <rect y="-.5" width="612" height="64" style="fill: #156082;"/>
  <path d="M52.32,42.87c.02,3.29-1.24,6.39-3.56,8.73-2.32,2.34-5.41,3.64-8.7,3.66h-.07c-3.26,0-6.34-1.26-8.66-3.56-2.34-2.32-3.65-5.4-3.66-8.69-.04-6.8,5.48-12.37,12.28-12.4h15.34c5.81-.03,10.52-4.79,10.49-10.6-.02-2.81-1.12-5.45-3.13-7.43-1.98-1.96-4.61-3.04-7.4-3.04h-.06c-2.81.02-5.45,1.12-7.43,3.13-1.96,1.98-3.04,4.59-3.05,7.37v4.74h-1.8v-4.65c-.02-3.29,1.25-6.39,3.57-8.73,2.32-2.34,5.41-3.64,8.7-3.66h.07c3.26,0,6.34,1.26,8.66,3.56,2.34,2.32,3.64,5.4,3.65,8.69.04,6.8-5.46,12.37-12.27,12.4h-15.34c-5.81.03-10.52,4.79-10.49,10.6.02,2.81,1.12,5.45,3.13,7.43,1.98,1.96,4.61,3.04,7.4,3.04h.06c2.81-.02,5.45-1.12,7.44-3.13s3.05-4.65,3.04-7.46v-4.65h1.8v4.65h0ZM46.71,28.58h1.8v-8.48c-.02-3.71,2.98-6.73,6.69-6.76h.04c3.69,0,6.7,2.99,6.72,6.68,0,1.8-.68,3.49-1.94,4.76-1.26,1.28-2.95,1.98-4.73,1.99h-4.76v1.8h4.76c2.27-.01,4.41-.91,6.01-2.53,1.6-1.62,2.47-3.76,2.45-6.04-.03-4.7-3.86-8.5-8.56-8.47-4.68.03-8.48,3.84-8.48,8.51v8.52h0ZM44.7,28.58v-1.8h-17.03v1.8h17.03ZM40.89,24.78v-1.8h-9.42v1.8h9.42ZM54.33,38.23v1.8h9.42v-1.8h-9.42ZM39.94,34.42c-2.27.01-4.41.91-6.01,2.53s-2.48,3.76-2.46,6.04c.03,4.68,3.85,8.47,8.52,8.47h.05c4.68-.03,8.47-3.84,8.47-8.51v-8.52h-1.8v8.48c.02,3.71-2.98,6.73-6.68,6.76h-.04c-3.69,0-6.7-2.99-6.72-6.68,0-1.8.68-3.49,1.94-4.76,1.26-1.28,2.95-1.98,4.73-1.99h4.75v-1.8h-4.76ZM50.52,24.78h1.8v-4.71c0-1.6,1.31-2.91,2.91-2.91s2.91,1.3,2.91,2.91-1.3,2.91-2.91,2.91h-.9v1.8h.9c2.6,0,4.71-2.11,4.71-4.71s-2.11-4.71-4.71-4.71-4.71,2.11-4.71,4.71v4.71ZM50.52,34.42v1.8h17.04v-1.8h-17.04ZM44.7,38.23h-1.8v4.71c0,1.6-1.3,2.91-2.9,2.91s-2.91-1.3-2.91-2.91,1.3-2.91,2.91-2.91h.89v-1.8h-.89c-2.6,0-4.71,2.11-4.71,4.71s2.11,4.71,4.71,4.71,4.7-2.11,4.7-4.71v-4.71Z" style="fill: #fff;"/>
  <rect y="720.85" width="612" height="71.15" style="fill: #9184c4;"/>
</svg>
