<?xml version="1.0" encoding="UTF-8"?>
<svg id="Layer_1" data-name="Layer 1" xmlns="http://www.w3.org/2000/svg" xmlns:xlink="http://www.w3.org/1999/xlink" viewBox="0 0 612 792">
  <defs>
    <linearGradient id="linear-gradient" x1="621.18" y1="774.3" x2="-15.09" y2="14.64" gradientTransform="translate(0 794) scale(1 -1)" gradientUnits="userSpaceOnUse">
      <stop offset="0" stop-color="#00afd7"/>
      <stop offset=".5" stop-color="#2358c5"/>
      <stop offset="1" stop-color="#4501b3"/>
    </linearGradient>
    <clipPath id="clippath">
      <rect width="612" height="792" style="fill: none;"/>
    </clipPath>
  </defs>
  <rect width="612" height="792" style="fill: url(#linear-gradient);"/>
  <g style="clip-path: url(#clippath);">
    <g style="opacity: .1;">
      <path d="M-206.91,791.97c48.38-46.94,93.32-90.66,163.19-158.85,67.07-65.46,121.67-117.2,124.72-118.21h-.01c-2.25,4.86-10.66,12.71-16.22,17.75-.43.38-.81.67-1.28,1.11-14.96,14-37.47,35.68-59.15,56.99-13.01,12.78-48.27,47.32-78.36,76.75-30.09,29.43-65.69,64.34-79.1,77.57-6.75,6.66-30.56,29.84-48,46.87h-5.79Z" style="fill: #fff;"/>
      <path d="M-153.41,791.97c5.69-6.17,11.25-12.25,15.78-17.11,19.13-20.59,41.87-45.33,86.77-94.44,10.64-11.63,16.77-19.46,15.99-20.4-.78-.95,17.43-20.67,48.2-52.18,18.02-18.45,34.18-35.21,43.28-44.86,9.91-10.56,20.83-22.66,31.97-33.22,7.3-7.87,28.29-30.07,46.63-49.34,18.34-19.27,36.78-38.71,40.96-43.22,3.66-3.94,7.07-6.91,8.23-7.23.17,0,.28,0,.35.05,1.23,1.24-54.39,61.24-176.58,190.49-18.22,19.28-35.77,38.41-39,42.53-3.23,4.11-16.92,19.49-30.44,34.18-13.52,14.68-28.84,31.45-34.04,37.27-5.2,5.81-17.23,18.96-26.72,29.21-3.23,3.48-18.01,19.67-25.92,28.29l-5.46-.02h0Z" style="fill: #fff;"/>
      <path d="M-15.92,791.97c24.8-38.35,56.42-87.3,66.62-103.21,4.6-7.17,9.19-13.04,10.2-13.04.45,0,.87-.05,1.19,0,2.25.21-.52,4.3-33.91,56.66-15.42,24.18-32.45,50.99-37.87,59.6l-6.22-.02h0Z" style="fill: #fff;"/>
      <path d="M54.41,791.97c13.43-28.14,24.53-51.25,37.65-78.22,41.46-85.28,88.68-180.17,90.33-181.59h.01-.01s.05-.03.05,0c.06,1.74-14.36,31.71-71.63,148.79-15.24,31.16-34.03,70.07-41.75,86.47-4.24,9-7.5,15.89-11.59,24.55h-3.06Z" style="fill: #fff;"/>
      <path d="M98.01,791.97c49.58-118.64,54.5-129.66,56.38-129.66.44,0,.94-.33,1.18-.24,1.07.37-2.42,8.48-33.65,84.48-7.2,17.52-13.71,33.24-18.76,45.42h-5.16Z" style="fill: #fff;"/>
      <path d="M153.69,791.97c4.31-13.87,11.22-36.26,14.08-45.42,20.65-66.23,29.85-96.05,52.65-170.65,9.73-31.83,12.79-41.39,13.59-41.6.18-.05.25.4.25,1.2,0,3.38-18.69,66.31-48.76,164.1-16.48,53.6-20.46,66.67-28.36,92.39h-3.45Z" style="fill: #fff;"/>
      <path d="M187.85,791.97c3.22-13.41,8.66-36.05,10.37-43.19,7.22-30.15,10.88-43.47,12-43.37.26,0,.38.76.38,2.17s-7.69,35.29-17.1,75.21c-.74,3.14-1.39,5.91-2.16,9.18h-3.49,0Z" style="fill: #fff;"/>
      <path d="M229.33,791.97c25.53-168.22,30.16-197.32,31.62-198.85.09-.1.18-.13.25-.18.55-.18.68,1.34.32,3.91-.4,2.8-4.73,31.93-9.62,64.72-4.89,32.8-12.17,82.11-16.18,109.57-.88,6.05-2.04,13.67-3.09,20.83h-3.29Z" style="fill: #fff;"/>
      <path d="M249.89,791.97c2.44-22.69,5.56-51.54,7.36-67.78,1.99-18.04,3.62-34.98,3.62-37.64,0-3.4.69-4.85,2.31-4.85,1.86,0,2.15,1.23,1.47,6.33-.46,3.48-3.19,29.82-6.07,58.52-1.01,10.05-3.11,30.05-4.69,45.42h-4Z" style="fill: #fff;"/>
      <path d="M274.03,791.97c.25-4.09,1.63-25.6,1.63-25.8,0-.55.83-.99,1.85-.99,1.08,0,1.44,3.06.37,26.79h-3.85Z" style="fill: #fff;"/>
      <path d="M332.14,791.97c-4.71-81.28-9.16-161.54-9.16-169.53,0-3.48.54-6.33,1.21-6.33s2.35,19.62,3.74,43.61c1.39,23.98,3.51,58.03,4.71,75.66.75,11.06,2.32,35.25,3.71,56.6h-4.21Z" style="fill: #fff;"/>
      <path d="M344.2,791.97c-2.61-24.91-12.45-148-11.85-149.6.2-.56.41-.84.61-.79,1.08.3,2.18,10.53,4.71,41.6,5.13,62.96,8.42,101.27,9.31,108.78h-2.78Z" style="fill: #fff;"/>
      <path d="M355.97,791.97c-2.21-20.81-4.71-44.14-5.78-53.62-5.54-48.97-15.39-141.32-15.39-144.18,0-.95.19-1.48.54-1.53.2-.06.46.11.75.43.71.78,2.74,14.5,4.5,30.48,1.77,15.99,5.17,45.51,7.55,65.6,2.39,20.09,7.35,64.03,11.02,97.65.21,1.96.37,3.24.58,5.18h-3.77Z" style="fill: #fff;"/>
      <path d="M414.13,791.97c-2.98-13.16-4.58-20.34-8.26-36.48-7.28-31.97-13.87-60.99-14.64-64.47-.79-3.53-.84-6.34-.12-6.34s1.61,1.51,2,3.36c.39,1.84,6.76,29.52,14.16,61.5,4.21,18.21,6.46,28.04,9.78,42.45h-2.91Z" style="fill: #fff;"/>
      <path d="M423.68,791.97c-14.42-57.49-25.31-101.73-25.87-106.56-.09-.64-.08-.96,0-.96h.01c.43-.05,3,8.7,6.36,21.85,3.98,15.58,12.25,47.45,18.38,70.82,1.09,4.14,2.69,10.38,3.86,14.85h-2.75Z" style="fill: #fff;"/>
      <path d="M430.73,791.97c-3.07-11.67-11.7-43.7-25.62-95.08-7.06-26.04-8.74-32.67-7.71-32.82.24-.05.62.28,1.11.77.88.89,5.49,15.95,10.22,33.47,11.42,42.19,16.78,62.27,25.24,93.68h-3.25,0Z" style="fill: #fff;"/>
      <path d="M456.83,791.97c-9.1-28.41-19.79-61.78-28.63-89.38-29.07-90.74-30.12-94.12-29.41-94.83.04-.05.09-.05.14-.05,1.67.54,11.76,31.05,61.12,184.24l-3.21.02Z" style="fill: #fff;"/>
      <path d="M498.25,791.97c-7.57-18.97-14.63-36.69-24.26-60.68-15.56-38.73-28.29-71.1-28.29-71.93,0-.95.13-1.46.42-1.52,1.57-.19,7.87,13.97,23.98,53.3,9.27,22.62,21.89,53.84,32.8,80.83h-4.65Z" style="fill: #fff;"/>
      <path d="M515.21,791.97c-1.44-3.14-1.87-4.06-3.4-7.4-50.92-111.55-57.25-125.76-57.25-128.58,0-.64.09-.99.29-1.04.86-.17,3.71,5.55,9.71,19.3,4.12,9.43,10.3,23.18,13.73,30.56,3.43,7.38,11.72,25.5,18.43,40.25,5.64,12.41,14.02,30.55,21.52,46.91h-3.03Z" style="fill: #fff;"/>
      <path d="M531.38,791.97c-3.35-7.26-9.79-21.1-11.01-23.8-3.51-7.79-11.7-25.32-18.2-38.96-12.18-25.56-14.47-31.11-12.86-31.11.51,0,6.29,11.24,12.83,24.97,20.36,42.75,24.97,52.55,32.68,68.91h-3.44,0Z" style="fill: #fff;"/>
      <path d="M577.1,791.97c-34.03-60.88-69.17-123.61-90.67-161.73-14.81-26.24-33.12-58.78-40.72-72.31-7.59-13.53-21.56-38.35-31.04-55.16-24.7-43.79-30.01-53.75-29.15-54.63.05-.05.13-.05.23,0,.69.25,2.45,2.6,4.22,5.71,2.03,3.55,15.33,26.91,29.55,51.93,14.23,25.01,35.65,62.57,47.62,83.48,20.63,36.03,72.38,127.28,115.06,202.72l-5.11-.02h0Z" style="fill: #fff;"/>
      <path d="M613.95,791.97c-4.97-8.09-7.52-12.47-7.88-13.7-.37-1.24-.7-2.28-.51-2.43.36-.29,3.37,4.01,11.27,16.13h-2.87Z" style="fill: #fff;"/>
      <path d="M671.46,791.97c-17.8-24.1-36.1-48.87-46.12-62.57-37.96-51.91-44.89-61.3-88.34-119.81-24.28-32.69-43.76-59.82-43.29-60.3.15-.15.34-.25.58-.2,1.68.2,5.99,5.53,20.26,24.52,8.01,10.66,18.61,24.75,23.57,31.31,22.84,30.22,101.04,135.44,139.13,187.06h-5.8,0Z" style="fill: #fff;"/>
      <path d="M726.25,791.97c-21.75-25.48-38.74-45.32-45.99-53.62-1.78-2.05-22.87-26.54-46.86-54.42-58.49-67.98-61.44-71.41-82.71-96.24-10.15-11.84-30.11-34.98-44.36-51.42-39.57-45.65-42.07-48.59-43.41-50.91-.91-1.6-1.26-2.45-.91-2.4,1.04.1,8.21,8.03,23.98,26.33,30.41,35.29,37.65,43.66,60.2,69.54,19.43,22.3,135.98,157.27,174.29,201.85,3.27,3.82,6.15,7.08,9.79,11.3h-4.03Z" style="fill: #fff;"/>
      <path d="M795.49,791.97c-5.02-4.95-13.05-12.96-17.86-17.69-68.44-67.42-237.29-237.71-236.49-238.51.4-.41,14.86,13.3,32.12,30.47,17.26,17.17,57.01,56.71,88.34,87.88,44.85,44.61,89.09,88.37,139.25,137.86h-5.36Z" style="fill: #fff;"/>
      <path d="M-77.31,787.55c-1.04,0-1.89-.84-1.84-1.87s9.52-13.73,21.07-28.22c11.56-14.49,41.59-52.24,66.75-83.86,25.16-31.63,46.61-57.5,47.68-57.5,3.47,0,2.09,3.16-5.15,11.72-3.9,4.62-15.99,19.81-26.86,33.74-49.49,63.46-99.92,125.98-101.66,125.98h0Z" style="fill: #fff;"/>
      <path d="M-80.17,754.45c-.37-.06-.5-.5-.5-1.24,0-.85,18.13-22.75,40.29-48.65,22.16-25.91,41.41-48.52,42.78-50.24,1.11-1.4,2.34-2.33,3.04-2.33.16,0,.29.05.39.15.51.52-11.25,15.33-26.15,32.92-14.89,17.58-34.07,40.41-42.61,50.74-11.65,14.07-15.92,18.85-17.24,18.66h0Z" style="fill: #fff;"/>
      <path d="M43.89,742.99c-.3-.06-.36-.66-.36-1.52,0-2.01,96.83-169.53,99.97-172.95.11-.13.28-.19.46-.19.31,0,.68.15.98.46.48.48-3.08,7.48-7.93,15.53-11.27,18.73-45.2,77.06-60.57,104.09-25.39,44.66-31.25,54.81-32.56,54.58h0Z" style="fill: #fff;"/>
      <path d="M-171.19,714.89c-.12,0-.21-.05-.26-.12-.43-.7,5.02-6.3,12.09-12.45,7.08-6.15,30.18-26.23,51.32-44.63,21.14-18.4,57.07-49.63,79.84-69.39,22.77-19.76,48.36-42.02,56.87-49.46,8.25-7.21,15.37-12.8,16.2-12.74.01.05.06.05.06.05.43.45-1.26,2.6-3.77,4.77-20.06,17.38-130.45,114-165.48,144.84-34.09,30.01-45.01,39.17-46.88,39.15v-.02h0Z" style="fill: #fff;"/>
      <path d="M603.23,705.77c-1.3-.08-4.42-3.26-8.45-8.79-3.44-4.71-20.76-28.19-38.49-52.16-10.24-13.85-19.4-26.46-25.32-34.82-5.4-8.24-6.87-11.22-6.29-11.16.7.05,4.4,4.5,7.77,9.37,5.7,8.21,18.73,25.68,48.21,64.89,12.78,17,23.24,31.26,23.24,31.68,0,.69-.23,1.01-.67.98h0Z" style="fill: #fff;"/>
      <path d="M-442.72,701.01v-5.45c1.41-.81,2.82-1.62,4.59-2.56,7.52-3.99,37.96-20.34,67.64-36.33,95.04-51.18,192.31-103.1,272.79-145.6,43.1-22.76,83.02-43.92,88.71-47.03,5.69-3.12,36.97-19.72,69.49-36.9,94.42-49.87,97-51.24,109.22-58.02,7.64-4.24,13.35-6.78,14.17-6.54.37.1-.27.79-2.2,2.15-3.31,2.33-48.22,26.64-95.33,51.6-17.48,9.26-40.11,21.37-50.27,26.9-16.94,9.22-71.65,38.55-175.2,93.92-21.96,11.74-48.9,26.16-59.88,32.04-37.1,19.88-124.72,67.28-161.16,87.19-39.66,21.67-71.72,38.95-82.59,44.62h.01Z" style="fill: #fff;"/>
      <path d="M490.31,686.16c-.57,0-9.22-16.51-19.22-36.69-10-20.18-17.89-36.99-17.53-37.35h.05-.01c1.07-.09,12.18,20.71,23.21,43.5,12.6,26.04,14.6,30.56,13.5,30.56v-.02h0Z" style="fill: #fff;"/>
      <path d="M30.02,681.7c-.86,0-.34-2.01,1.16-4.45,3.71-6.07,32.05-46.1,53.85-76.06,9.84-13.53,24.27-33.66,32.06-44.72,7.79-11.07,14.38-20.41,14.65-20.75.1-.12.25-.19.42-.19.28,0,.63.14.93.44.92.92-4.36,8.48-55.64,79.57-23.02,31.91-42.24,59.33-44.23,63.08-.9,1.7-2.34,3.09-3.19,3.09h0Z" style="fill: #fff;"/>
      <path d="M367.48,657.92s-.06,0-.09-.07c-.82-1.61-18.71-103.65-18.27-104.24.09-.13.25-.19.43-.18.3,0,.66.19.99.52,1.59,1.61,18.4,96.92,17.8,100.91-.27,1.8-.63,3.05-.86,3.06Z" style="fill: #fff;"/>
      <path d="M294.21,652.8c-.68-.05-1.39-.69-1.78-1.72-.93-2.44,1.61-102.94,3.43-136.06.49-8.97,1.4-15.87,2.05-15.69l.06.05c.65.65.57,23.67-.17,51.14-.74,27.47-1.35,61.47-1.4,75.58-.05,15.54-.63,25.99-1.54,26.55-.2.12-.42.18-.65.16h0s0-.01,0-.01Z" style="fill: #fff;"/>
      <path d="M538.32,646.93c-.63.07-8.15-10.42-16.91-23.6-8.89-13.4-19.93-30.01-24.51-36.91-5.62-8.45-8.43-13.49-7.66-13.43.3,0,1.15.81,2.6,2.49,4.81,5.57,47.22,70.73,46.51,71.45h-.02s0,0,0,0Z" style="fill: #fff;"/>
      <path d="M67.68,644.78c-.43.05-.51-.61-.51-1.52,0-.78,4.31-7.55,9.57-15.05,5.27-7.5,19.64-28.52,31.95-46.71,12.31-18.19,24.47-35.89,27.02-39.32,2.56-3.43,5.4-7.49,6.32-9.01.69-1.14,1.58-1.87,2.26-1.87.22,0,.42.07.58.22.64.62-.2,2.63-1.87,4.47-1.67,1.84-13.34,18.78-25.94,37.64-38.86,58.2-47.51,71.01-49.39,71.16Z" style="fill: #fff;"/>
      <path d="M235.53,642.93c-.7,0-1.27-.52-1.27-1.15s2.93-16.56,6.5-35.4c13.77-72.6,22.08-113.33,23.44-114.76.17-.17.31-.28.44-.33,1.17-.31-.27,7.77-8.92,52.51-4.27,22.14-10.28,53.5-13.35,69.7-3.07,16.2-6.15,29.44-6.84,29.44h0Z" style="fill: #fff;"/>
      <path d="M385.2,635.49c-.85,0-1.91-1.51-2.34-3.35-.43-1.85-4.8-19.7-9.7-39.69-6.67-27.18-8.81-37.74-7.54-37.89.18,0,.43.17.75.56.28.34,4.64,17.39,9.69,37.89,5.05,20.5,9.52,38.44,9.94,39.88.42,1.44.06,2.61-.79,2.61Z" style="fill: #fff;"/>
      <path d="M415.67,625.05c-1.15,0-5.28-9.44-10.24-23.48-4.57-12.91-15.03-42.2-23.24-65.07-11.32-31.54-15.05-43.27-13.59-43.1.18,0,.43.21.77.58.31.34,4.94,12.7,10.28,27.46,5.34,14.76,10.73,29.51,11.97,32.79,7.01,18.43,25.97,69.71,25.97,70.22,0,.33-.87.6-1.93.6h0Z" style="fill: #fff;"/>
      <path d="M-163.08,623.78c-.57-.06-.27-.82.93-2.28.93-1.13,4.17-3.77,7.2-5.86,8.62-5.95,67.01-46.67,88.31-61.6,10.57-7.41,27.87-19.43,38.44-26.71,10.57-7.29,30.42-21.15,44.11-30.81,16.34-11.53,26.13-17.82,27.58-17.77.57,0-.14.99-2.24,2.99-2.48,2.37-84.11,60.05-175.86,124.26-17.12,11.98-26.75,17.99-28.48,17.78h0Z" style="fill: #fff;"/>
      <path d="M704.91,619.02c-.82.05-2.06-.68-3.48-2.09-1.19-1.19-9.84-8.07-19.25-15.28-47.02-36.15-189.6-151.1-188.63-152.08.15-.15.25-.29.5-.29,1.32,0,6.79,4.45,46.32,36.35,33.5,27.03,117.78,93.52,156.4,123.39,5.03,3.89,9.14,7.75,9.14,8.58,0,.93-.38,1.4-1.01,1.43h0Z" style="fill: #fff;"/>
      <path d="M64.37,607.02c-.25,0-.19-.45.1-1.27.93-2.69,29.85-38.84,31.07-38.84,1.83,0,1.46,1.7-.77,3.56-1.09.91-8.17,9.53-15.73,19.17-9.81,12.51-13.86,17.36-14.66,17.37h0Z" style="fill: #fff;"/>
      <path d="M694.36,561.41c-1.25-.07-7.1-3.34-13.58-7.64-74.93-49.67-174.43-117.05-176.73-119.71-.96-1.1-2.07-2.18-1.7-2.18,1.12,0,15.6,9.74,87.5,57.73,104.94,70.06,106.14,70.88,104.69,71.76-.05,0-.11.05-.18.05h0Z" style="fill: #fff;"/>
      <path d="M-428.9,550.51c-1.03,0-2.32-1.16-2.86-2.58-.59-1.55-.21-2.85.95-3.23,112.54-37.74,501.59-170.92,512.37-175.4,1.7-.71,3.28-1.07,4.34-1.07.63,0,1.08.15,1.26.44,1.27,2.07-9.66,6.21-98.35,37.19-20.74,7.24-54.34,18.99-74.67,26.1-20.33,7.11-56.93,19.87-81.33,28.35-24.4,8.49-70.63,24.58-102.76,35.77-106.2,37-157.07,54.42-158.97,54.42h0Z" style="fill: #fff;"/>
      <path d="M451.07,530.63c-.69-.06-5.94-7.16-11.95-16.16-26.86-40.25-36.26-55.04-34.71-54.87.22,0,.66.35,1.31.95,1.03.95,2.62,3.11,3.54,4.8.92,1.69,10.88,16.9,22.13,33.79,11.25,16.9,20.13,31.05,19.73,31.46h-.05v.02Z" style="fill: #fff;"/>
      <path d="M520.79,522.14c-1.04.07-9.61-7.82-19.71-18.18-31.44-32.27-45.05-46.88-45.05-48.35t.05-.05h-.01c.88.16,15.23,14.1,32.66,31.73,17.99,18.2,32.45,33.84,32.15,34.76-.01.05-.05.06-.1.07v.02h0Z" style="fill: #fff;"/>
      <path d="M57.06,517.17c-.18,0-.2-.2-.09-.53.85-2.37,50.69-46.35,52.41-46.26h.05c.4.41-9.44,9.83-21.87,20.93-21.91,19.57-29.37,25.95-30.5,25.87h0Z" style="fill: #fff;"/>
      <path d="M244.85,483.4c-1.08,0-1.62-.82-1.19-1.84.43-1.02,4.57-13.6,9.19-27.95,6.28-19.49,9.6-28.41,10.66-28.54.22-.05.33.32.38,1.04.05.78-3.79,13.98-8.5,29.34-5.49,17.89-9.28,27.96-10.54,27.96h0Z" style="fill: #fff;"/>
      <path d="M-105.6,468.16c-4.6-.09-3.95-4.2,2.88-6.86,20.68-8.07,108.95-43.73,119.92-48.51,2.12-.92,3.68-1.4,4.76-1.45.84-.05,1.39.19,1.69.67.55.88.41,2.11-.29,2.72-1.18,1.02-36.64,16.07-103.72,44.02-8.48,3.53-16.15,6.7-21.23,8.77-1.61.47-2.94.67-4.01.65h0Z" style="fill: #fff;"/>
      <path d="M196.7,466.89c-.51,0-.88-.25-.88-.7,0-.61,3.21-6.19,7.13-12.42,3.92-6.23,14.71-23.4,23.95-38.16,9.25-14.76,17.03-27.12,17.26-27.45.12-.17.31-.23.52-.23s.42.12.62.32c.92.92-46.17,77.91-48.05,78.56-.2.07-.38.1-.56.1h0Z" style="fill: #fff;"/>
      <path d="M357.48,465c-1.16,0-2.47-.52-2.86-1.58-1.92-5.24-13.89-47.91-13.82-49.23.02-.31.08-.5.17-.5.68,0,3.32,7.82,8.7,25.75,3.19,10.66,6.64,20.06,7.66,20.88,1.02.82,1.98,2.22,2.14,3.1.19,1.05-.83,1.58-2,1.58h0Z" style="fill: #fff;"/>
      <path d="M697.38,462.5c-2.51,0-17.53-5.58-39.52-14.75-41.45-17.28-121.04-51.06-148.6-63.06-9.35-4.07-20.16-8.76-24-10.43-3.85-1.66-6.67-3.55-6.27-4.2.05-.06.2-.12.43-.11,1.61,0,7.39,2.03,13.97,4.89,7.51,3.27,26.64,11.33,42.5,17.89,15.86,6.57,39.81,16.5,53.23,22.06,13.42,5.57,43.03,17.7,65.8,26.96,22.78,9.26,42.03,17.4,42.81,18.08.89.78.89,1.74,0,2.6-.06.05-.17.07-.33.08h0Z" style="fill: #fff;"/>
      <path d="M580.68,458.1c-1.45,0-4.21-1.03-7.09-2.83-2.44-1.52-32.05-19.06-65.8-38.99-33.75-19.93-62.02-36.89-62.84-37.69-.58-.58-.8-.93-.52-.93,1.51-.1,17.29,8.89,64.63,36.6,33.05,19.34,62.91,36.8,66.37,38.8,3.45,2.01,6.28,3.95,6.28,4.33,0,.47-.39.7-1.04.7h0Z" style="fill: #fff;"/>
      <path d="M105.14,444.49c-.57,0-1-.39-1-1.05,0-.8,12.47-10.59,27.72-21.74,15.25-11.15,33.25-24.37,40.01-29.39,6.33-4.7,11.9-8.28,12.92-8.35.07,0,.09,0,.14.05.73.73-76.24,59.31-79.38,60.41-.15.05-.29.07-.42.08v-.02h0Z" style="fill: #fff;"/>
      <path d="M423.95,443.17c-.71,0-9.06-9.53-18.55-21.18-9.49-11.65-16.94-21.49-16.57-21.87.19-.18.41-.3.62-.3s.41.07.55.24c.27.33,7.09,8.59,15.15,18.32,18.62,22.48,20.37,24.79,18.79,24.79h0s0,0,0,0Z" style="fill: #fff;"/>
      <path d="M-388.06,439.73c-1.33,0-1.63-.87-1.63-3.22,0-2.71.79-3.76,2.85-3.76,1.57,0,46.64-8.76,100.17-19.47,108.71-21.75,384.22-77.14,388.23-78.06.35-.09.7-.09,1.01-.09.93.05,1.58.51,1.58,1.22,0,1.87-58.18,14.26-292.01,62.13-27.65,5.66-72.9,14.97-100.55,20.68-27.65,5.72-60.25,12.45-72.45,14.95-12.2,2.51-23.67,4.92-25.51,5.35-.69.16-1.25.26-1.69.25h0Z" style="fill: #fff;"/>
      <path d="M392,438.9c-1.11-.07-4.18-4.06-9.03-11.76-4.01-6.35-9.52-15.07-12.24-19.38-2.73-4.3-4.35-7.83-3.6-7.83,1.17,0,25.36,36.35,25.36,38.1,0,.59-.16.88-.47.86h0Z" style="fill: #fff;"/>
      <path d="M27.43,429.34c-.1,0-.15-.05-.14-.07,0-.96,3.18-3.18,7.02-4.93,3.84-1.75,24.17-11.64,45.18-21.97,19.69-9.69,35.8-17.05,37.48-17.14.09,0,.14,0,.14.08-.8,2.43-85.74,44.04-89.68,44.03Z" style="fill: #fff;"/>
      <path d="M445.93,425.81c-1.5-.18-13.93-10.65-28.25-23.82-14.79-13.6-26.54-25.08-26.11-25.52h.06c.96.08,10.25,7.85,21.12,17.68,11.23,10.15,23.64,21.22,27.58,24.59,3.94,3.37,6.51,6.55,5.7,7.06h-.11Z" style="fill: #fff;"/>
      <path d="M341.31,411.48c-.39,0-.85-.32-1.19-.88-2.09-3.4-12.27-38.99-11.17-38.99,1.46,0,13.94,38.56,12.83,39.68-.13.13-.29.19-.47.19Z" style="fill: #fff;"/>
      <path d="M-112.52,410.09c-.95,0-.69-.42-.69-.97,0-.69,8.15-3.47,18.11-6.18,19.58-5.33,111.91-30.7,192.58-52.93,27.65-7.62,50.55-13.59,50.89-13.27,1.39,1.34-2.34,2.56-31.84,10.42-16.98,4.52-45.84,12.51-64.14,17.74-39.55,11.32-75.9,21.56-82.06,23.12-2.44.62-21.92,5.9-43.3,11.74-29.51,8.06-37.47,10.28-39.56,10.32h0Z" style="fill: #fff;"/>
      <path d="M216.03,399.76c-.56-.05-.96-.66-.91-1.55.07-2,40.75-45.44,42.71-45.7.07,0,.06,0,.07.05.05,1.39-39.61,46.49-41.44,47.13-.15.05-.28.07-.41.06h0Z" style="fill: #fff;"/>
      <path d="M442.84,393.88h-.21c-1.15-.06-8.42-4.71-16.14-10.33-7.73-5.62-15.38-11.21-17.01-12.41-1.63-1.2-2.63-2.51-2.22-2.9h.02c1.08-.19,33.89,22.18,36.76,25.08.35.35-.19.6-1.21.58v-.02Z" style="fill: #fff;"/>
      <path d="M688.16,393.81h-.43c-.97-.11-46.22-11.45-100.57-25.17-78.87-19.93-108.02-27.75-103.84-28,.6-.05,1.88.08,3.79.34,6.93.94,200.59,48.08,202.55,49.31,1.78,1.11.64,3.48-1.49,3.55v-.02Z" style="fill: #fff;"/>
      <path d="M511.84,374.51h-.71c-1.42-.07-15.9-5.09-32.16-11.16-16.26-6.07-37.06-13.83-46.21-17.25-9.15-3.41-16.64-6.85-16.64-7.63,0-.54.39-.88.97-.88.26,0,.56.05.88.17,1.01.39,22.98,8.28,48.79,17.53,40.71,14.58,51.86,19.33,45.07,19.24v-.02h.01Z" style="fill: #fff;"/>
      <path d="M712.08,357.98c-2.64,0-7.62-.66-16.52-2.11-6.9-1.12-21.88-3.44-33.27-5.16-48.01-7.24-106.6-16.53-108.51-17.2-1.13-.4-1.71-1.07-1.29-1.5.09-.09.31-.15.75-.15,3.08-.08,16.53,1.88,63.95,9.19,30.46,4.69,44.66,6.8,70.08,10.42,14.56,2.07,26.7,3.76,26.98,3.76s.53.67.53,1.49-.65,1.24-2.71,1.26h0Z" style="fill: #fff;"/>
      <path d="M-112.59,353.53c-2.14,0-2.09-.41-2.09-1.11s3.83-1.78,8.5-2.34c4.68-.56,30.46-3.97,57.3-7.57,26.83-3.6,53.45-6.88,59.14-7.3l10.35-.75-10.35,2.04c-10.55,2.08-17.39,3.07-83.5,12.09-26.12,3.56-35.78,4.89-39.35,4.93h0Z" style="fill: #fff;"/>
      <path d="M676.17,317.79c-7.92-.05-19.11-.51-33.83-1.42-10.16-.63-46.1-2.57-79.84-4.31-92.68-4.77-134.93-7.4-135.9-8.46-.27-.3,1.22-.46,5.58-.46,13.07,0,51.88,1.62,145.85,5.83,55.3,2.48,103.37,4.51,106.83,4.51,4.59,0,6.29.6,6.29,2.24,0,1.43-4.79,2.12-14.97,2.07Z" style="fill: #fff;"/>
      <path d="M57.26,310.36c-4.59-.05-4.87-.51-4.87-1.35s.63-1.49,1.4-1.49c6.99,0,107.95-4.58,115.04-5.22,1.94-.17,3.71-.23,5.19-.23,2.46,0,4.05.29,4.05.76,0,1.51-10.99,2.34-73.19,5.49-28.7,1.46-41.72,2.1-47.62,2.04Z" style="fill: #fff;"/>
      <path d="M192.7,292.4c-10.25,0-20.27-.29-23.13-.84-1.83-.35-3.33-1.28-3.33-2.05,0-.5,3.99-.74,9.77-.74,14.77-.05,41.22,1.21,42.65,2.54.78.73-12.78,1.11-25.96,1.09h0Z" style="fill: #fff;"/>
      <path d="M594.36,292.13c-4.15-.05-7.04-.3-7.32-.76-1.26-2.06,18.54-3.07,81.03-4.17,14.86-.26,26.62-.42,35.49-.42,14.77-.04,21.5.29,21.08.96-.6.99-19.85,1.88-53.82,2.47-29.08.5-59.65,1.27-67.92,1.7-3.1.16-6.05.23-8.53.21h0Z" style="fill: #fff;"/>
      <path d="M42.82,290.82c-18.3.05-48.64-.37-90.97-1.26-26.43-.55-68.14-1.09-92.69-1.2-41.75-.19-49.09-.87-45.77-4.21.11-.11,2.23-.18,5.95-.18,11.17-.06,36.82.36,66.28,1.06,39.28.93,95.22,2.13,124.33,2.66,29.1.53,53.26,1.52,53.69,2.2.36.59-6.58.91-20.81.94h0Z" style="fill: #fff;"/>
      <path d="M386.67,282.18c-1.32,0-1.64-.5-.79-1.27,1.82-1.65,62.48-13.08,69.16-13.14.33,0,.53,0,.58.07.5.5.55,1.28.12,1.72-.83.84-65.28,12.62-69.07,12.62h0Z" style="fill: #fff;"/>
      <path d="M21.79,279.76c-8.49,0-26.06-.96-59.58-3.07-20.71-1.3-40.81-2.5-44.67-2.66-6.15-.25-7.01-.57-6.96-2.52.04-1.35.21-1.88,3.56-1.83,2.01,0,5.18.25,10.15.62,7.51.56,34.08,2.4,59.05,4.08,35.15,2.38,45.41,3.37,45.36,4.42-.02.62-1.84.96-6.93.95h0Z" style="fill: #fff;"/>
      <path d="M246.79,274.57c-1.83-.05-7.85-2.06-18.82-6.3-14.26-5.52-19.16-8.45-14.15-8.45,2.35,0,31.15,11.86,32.92,13.56.83.8.87,1.2.05,1.19Z" style="fill: #fff;"/>
      <path d="M554.48,262.79c-2.28,0-3.6-.64-3.07-1.49.5-.82,3.06-1.49,5.68-1.49,4.52,0,52.38-6.84,130.35-18.64,34.51-5.22,70.1-10.48,217.34-32.12,39.04-5.73,90.44-13.3,114.22-16.81,19.1-2.82,29.7-4.31,35.72-4.87v4.29c-.35.05-.57.09-.96.14-4.68.54-24.14,3.3-43.25,6.14-19.12,2.83-49.05,7.16-66.53,9.6-50.1,6.99-194.33,27.71-244.7,35.15-69.75,10.3-140.32,20.1-144.78,20.1h0Z" style="fill: #fff;"/>
      <path d="M84.78,262.6c-.18,0-.38,0-.59,0-2.44-.07-24.06-3.13-48.05-6.81-23.99-3.68-43.9-6.96-44.23-7.29-.79-.76-.4-1.17,1.82-1.17,4.24,0,15.18,1.49,37.41,4.93,21.05,3.25,41.6,6.37,45.67,6.93,8.65,1.19,13.74,3.45,7.98,3.42h0Z" style="fill: #fff;"/>
      <path d="M170.52,261.3c-.52,0-1.08-.26-1.54-.71-.39-.4-19.89-5.41-43.33-11.14-23.44-5.73-42.97-10.77-43.4-11.21-.79-.8-.72-1.26.56-1.31,3.29-.12,14.49,2.43,39.29,8.71,52.2,13.22,50.05,12.61,50.05,14.24,0,.94-.77,1.46-1.64,1.42Z" style="fill: #fff;"/>
      <path d="M8.68,260.67c-.76.16-20.34-1.97-43.52-4.75-23.18-2.78-78.41-9.45-122.73-14.83-44.32-5.38-99.87-12.13-123.46-14.99-55.37-6.72-57.34-7.02-57.89-8.78-.84-2.68.33-3.96,4.23-4.06,1.77-.05,4.11.15,7.08.57,19.71,2.78,121.96,16.21,162.64,21.37,55.94,7.09,156.77,19.72,167.51,20.98,5.04.59,8.35,1.67,8.04,2.61-.29.87-1.15,1.73-1.91,1.89h0Z" style="fill: #fff;"/>
      <path d="M520.1,258.27c-2.24-.05-2.32-.26-.47-1.32,2.91-1.67,52.34-9.92,59.41-10.05.46,0,.75,0,.82.09.48.49.61,1.13.27,1.42-.87.74-56.74,9.92-60.02,9.87Z" style="fill: #fff;"/>
      <path d="M256.09,230.78c-.69-.05-4.78-4.13-9.41-9.38-14.64-16.65-20.32-24.2-18.15-24.15,1.12.05,3.32,1.87,4.91,4.1,1.59,2.23,7.5,9.61,13.14,16.4,5.64,6.79,9.95,12.65,9.59,13.01h-.07v.02h0Z" style="fill: #fff;"/>
      <path d="M608.55,228.07c-1.02.05-1.96-.29-2.32-.89-.49-.79-.34-1.78.32-2.2,1.33-.83,58.54-15.05,150.39-37.38,18.71-4.55,38.55-9.42,44.08-10.83,4.38-1.12,6.95-1.69,8.57-1.74,1.62-.06,2.27.41,2.87,1.36,2.74,4.36,4.2,3.83-35.56,12.79-12.61,2.84-30.9,7.09-40.66,9.45-9.75,2.36-41.7,9.75-70.97,16.42-29.27,6.67-54.34,12.45-55.69,12.85-.34.1-.68.16-1.03.17Z" style="fill: #fff;"/>
      <path d="M537.3,227.02c-.9,0-1.42-1.07-1.16-2.38.47-2.36,37.02-15.13,109.89-38.41,100.26-32.02,121.06-38.53,125.63-38.71.65,0,.97.07,1.15.25.98.99-3.66,3.06-13.87,6.18-84.44,25.86-204.23,64.23-203.33,65.13.52.52,112.62-33.21,171-51.47,12.76-3.99,13.98-4.19,14.49-2.46.24.81-1.42,1.9-3.7,2.41-2.28.51-27.43,8.01-55.9,16.67-74.4,22.64-142.32,42.79-144.22,42.79h0Z" style="fill: #fff;"/>
      <path d="M460.16,221.32c-.09-2.14,2.87-3.64,16.87-10.05,8.13-3.72,43.05-19.92,77.59-35.98,34.55-16.07,63.49-28.98,64.32-28.69,1.72.6-15.25,9.49-31.76,16.65-6.1,2.65-14.08,6.21-17.74,7.92-3.66,1.72-20.63,9.56-37.71,17.45-17.08,7.88-37.83,17.45-46.11,21.27-6.39,2.95-14.61,6.59-22.78,10.3-.9.37-1.8.75-2.68,1.13h0Z" style="fill: #fff;"/>
      <path d="M330.08,219.55c-.78,0-.94-1.49-.36-3.35,4.19-13.43,10.89-30.16,12.25-30.62h.05c.79-.05-.85,6.2-3.73,14.1-2.93,8.06-5.67,15.83-6.07,17.26-.4,1.43-1.37,2.61-2.15,2.61h0Z" style="fill: #fff;"/>
      <path d="M10,219.04c-.67.16-31.83-7.29-69.24-16.54-98.06-24.24-265.02-65.13-318.63-78.04-9.31-2.24-11.16-3.19-11.56-5.95-.31-2.14.3-3.29,1.75-3.29,1.22,0,83.27,20.55,182.33,45.66C25.13,219.3,11.14,215.67,11.19,217.33c0,.79-.52,1.56-1.2,1.71h0Z" style="fill: #fff;"/>
      <path d="M215.97,218.07c-.43,0-13.08-10.23-28.1-22.74-15.02-12.5-27.37-23.24-27.43-23.85-.07-.73.26-1.06.9-1.11,1.4-.05,4.22,1.49,7.22,4.15,2.5,2.22,14.14,12.37,25.88,22.56,19.62,17.04,23.68,20.99,21.53,20.99Z" style="fill: #fff;"/>
      <path d="M482.76,218.07c-1.23-.15.42-1.81,4.71-3.88,7.96-3.49,16.29-7.52,25.06-11.17,47.42-20.94,135.19-60.58,198.55-89.69,54.05-24.83,174.75-79.94,188.52-86.08,6.91-3.08,42.18-19.18,78.37-35.78,36.19-16.6,69.99-32.1,75.13-34.44l1.61-.74v6.64c-6.99,3.76-20.71,10.01-48.65,22.55-118.38,53.09-174.59,78.37-195.91,88.08-28.62,13.05-145.55,65.76-161.91,72.99-6.91,3.05-31.2,13.76-53.97,23.78-22.77,10.02-47.05,20.77-53.96,23.87-6.91,3.1-19.89,8.69-28.83,12.41-8.94,3.72-19.45,8.15-23.35,9.83-2.87,1.24-4.64,1.69-5.38,1.6h0Z" style="fill: #fff;"/>
      <path d="M392.65,209.75c-.12,0-.19-.05-.19-.16,0-.93,15.66-17.02,34.81-35.74,26.14-25.56,36.24-34.79,38.57-34.87.38,0,.55.21.55.65,0,.76-15.02,15.43-42.13,41.15-7.33,6.95-17.47,16.66-22.56,21.58-4.45,4.3-8.19,7.33-9.05,7.39h0Z" style="fill: #fff;"/>
      <path d="M285.57,205.14c-.55.05-4.49-14.36-8.94-32.75-8.53-35.2-9.26-39.26-7.18-39.26,1.45,0,17.03,69.4,16.16,71.97-.01.05-.02.05-.04.05h0Z" style="fill: #fff;"/>
      <path d="M569.31,197.35c-.45,0-.66-.1-.58-.33.62-1.89,95.09-38.56,99.37-38.56,1.56,0,2.4.42,1.89.94-.53.52-19.1,7.82-41.28,16.22-22.18,8.39-44.88,17.02-50.43,19.15-4.16,1.6-7.62,2.58-8.96,2.58h-.01Z" style="fill: #fff;"/>
      <path d="M484.7,195.72c-.23,0-.29-.11-.22-.31.29-.89,9.82-6.96,21.16-13.49,11.35-6.53,29.94-17.33,41.32-23.99,11.37-6.65,21-11.99,21.4-11.87,1.51.52,1.67,3.45.19,3.45-.86,0-13.06,6.6-27.11,14.66-44.26,25.41-55.1,31.49-56.76,31.55h0Z" style="fill: #fff;"/>
      <path d="M16.02,194.12h-.22c-.61-.07-35.92-12.08-78.47-26.69-42.55-14.6-77.69-26.89-78.09-27.3-.76-.77-.71-1.16.33-1.16,3.14.05,15.26,3.9,41.27,12.91,21.96,7.61,57.05,19.74,78,26.95,20.94,7.21,38.07,13.63,38.07,14.27,0,.56-.38.97-.89,1.02Z" style="fill: #fff;"/>
      <path d="M104.44,191.73c-1.47-.05-8.92-3.37-17.31-7.76-8.94-4.68-35.55-18.45-59.14-30.6-105.86-54.58-120.5-62.31-120.5-63.59,0-.75.46-1.36,1.03-1.36s22.69,11.33,49.16,25.18c26.47,13.85,61.44,32.1,77.71,40.53,60.2,31.24,70.48,36.82,69.27,37.58-.05.05-.11.05-.21.05v-.02h0Z" style="fill: #fff;"/>
      <path d="M54.98,186.75c-1.02-.05-10.17-3.67-20.33-8.1C1.59,164.25-107.89,117.27-113.21,115.19c-2.85-1.11-5.5-2.46-5.91-2.99-.4-.53-9.72-4.84-20.7-9.56-33.36-14.35-63.99-27.75-70.23-30.74-3.25-1.56-12.9-5.79-21.44-9.41-8.54-3.62-30.83-13.28-49.53-21.46C-358.86,6.97-426.73-22.58-438.85-27.67c-1.53-.64-2.65-1.16-3.86-1.71v-5.33c4.54,1.98,9.29,4.04,19.02,8.32,13.42,5.9,41.69,18.32,62.84,27.58,81.54,35.74,97.52,42.79,141.94,62.62,25.21,11.25,55.67,24.76,67.69,30.02,12.01,5.26,25.41,11.2,29.75,13.21,4.35,2.01,13.48,5.93,20.29,8.72,6.81,2.79,27.35,11.74,45.65,19.89,18.3,8.15,51.07,22.49,72.82,31.87,35.53,15.32,43.54,19.41,37.71,19.24h0Z" style="fill: #fff;"/>
      <path d="M213.11,166.78c-.66-.05-3.45-3.12-6.49-7.18-3.23-4.33-15.74-21.95-27.79-39.17-12.05-17.22-25.26-36-29.35-41.74-7.31-10.25-29.58-41.82-50.71-71.9-5.89-8.39-10.13-15.61-9.41-16.06h.07c.96-.05,5.98,6.02,11.41,13.78,13.65,19.52,57.65,82.38,88.23,126.07,13.66,19.51,24.52,35.8,24.13,36.19-.02,0-.06.05-.11.05v-.04h.02Z" style="fill: #fff;"/>
      <path d="M363.07,166.07s-.08-.05-.08-.14c-.09-3.23,15.4-34.74,17.05-34.88.05,0,.11,0,.11.08.35.95-3.35,9.67-8.23,19.38-4.5,8.95-8.26,15.54-8.85,15.56Z" style="fill: #fff;"/>
      <path d="M397.19,159.84c-.2,0-.29-.22-.29-.58,0-.49,9.76-14.78,21.7-31.77,11.93-16.98,23.41-33.38,25.51-36.43,2.46-3.59,4.28-5.5,5.25-5.58.51-.05.77.42.77,1.41,0,.81-7.75,12.38-17.21,25.72-25.38,35.77-34.12,47.42-35.73,47.23h0Z" style="fill: #fff;"/>
      <path d="M314.72,144.13c-.33-.05-.47-1.37-.51-4.3-.05-3.28,2.24-44.21,5.08-90.94,2.84-46.74,6.5-107.45,8.14-134.92,1.63-27.47,3.62-59,4.43-70.07.8-11.07,1.46-21.3,1.46-22.74s.76-2.61,1.69-2.61c1.21,0,1.4,4.85.68,17.52-1.43,25.23-6.4,106.91-9.78,160.64-7.73,123.03-9.17,143.33-10.34,146.1-.37.88-.64,1.33-.85,1.32h0Z" style="fill: #fff;"/>
      <path d="M522.62,143.65s-.05,0-.05-.05c0-1.34,14.64-12.24,36.23-26.97,19.51-13.32,74.95-53.87,121.98-89.24,9.35-7.03,21.39-15.8,26.76-19.49,5.37-3.69,24.01-17.04,41.4-29.66,17.41-12.62,38.3-27.67,46.43-33.44,8.13-5.78,19.11-13.63,24.39-17.45,19.41-14.04,120.64-85.95,160.61-114.1,12.16-8.56,19.73-13.12,21.38-12.9.1,0,.19.05.25.11.92.92.3,2.05-1.73,3.14-1.73.93-14.6,9.82-28.62,19.75-14,9.93-39.44,27.88-56.52,39.9-46.37,32.64-83.4,58.94-120.51,85.58-18.29,13.14-43.92,31.51-56.92,40.81-21.05,15.04-56.01,40.46-91.77,66.72-63.59,46.7-121.53,87.69-123.32,87.3h.01Z" style="fill: #fff;"/>
      <path d="M235.04,141.26c-.55.1-1.59-1.33-2.59-3.66-2.47-5.8-20.86-47.85-46.44-106.18-9.25-21.09-16.82-39.04-16.82-39.88,0-1.17.19-1.75.59-1.69,1.43.2,5.56,8.46,13.42,26.62,43.43,100.3,52.77,122.6,52.12,124.47-.06.19-.16.3-.29.32Z" style="fill: #fff;"/>
      <path d="M80.16,137.5h-.04c-.2-.05-11.02-7.83-24.03-17.29-13.01-9.46-24.95-18.13-26.52-19.27-1.58-1.13-2.49-2.44-2.03-2.91h.09c2.59.11,52.86,36.39,52.86,38.2,0,.7-.15,1.26-.33,1.29v-.02h0Z" style="fill: #fff;"/>
      <path d="M105,136.19c-2.04-.06-9.27-5.47-24.51-18.15-11.79-9.82-23.59-19.32-26.22-21.13-4.33-2.97-6.5-7.05-3.72-6.98.61,0,5.46,3.87,10.77,8.57,5.32,4.7,17.46,14.84,26.99,22.53,9.53,7.69,17.33,14.23,17.33,14.54,0,.43-.2.64-.62.63h0Z" style="fill: #fff;"/>
      <path d="M590.74,133.16c-.45,0-.56-.19-.27-.61,9.33-6.58,20.12-11.85,28.16-16.45,16.87-9.64,48.8-28.22,112.74-65.51,20.5-11.96,26.65-15.5,28.49-15.4.72.05.77.64.77,1.51,0,1.45-25.64,17-70.6,42.8-29.42,16.89-56.22,32.37-68.79,39.73-8.13,4.78-27.37,13.94-30.5,13.92h0Z" style="fill: #fff;"/>
      <path d="M32.54,119.63h-.47c-.61-.05-5.44-3.01-10.72-6.58-5.29-3.57-30.24-20.07-55.45-36.67-25.21-16.61-60.81-40.25-79.1-52.55C-131.5,11.53-150.62-.76-155.69-3.48c-5.07-2.72-25.7-15.47-45.84-28.33-20.14-12.86-42.61-27.17-49.92-31.82-7.32-4.64-22.87-14.62-34.56-22.17-11.68-7.55-23.14-14.72-25.45-15.92-2.72-1.42-3.9-2.98-3.35-4.42.46-1.22,1.39-2.23,2.06-2.23.95,0,60.61,38.24,87.19,55.9C-189.77-28.7-152.8-5.67-149.14-4.86c2.53.56,7.92,3.49,11.98,6.52,4.06,3.03,44,30,88.74,59.92C19.46,107,36.78,119.37,32.55,119.65h0s-.02-.02-.02-.02Z" style="fill: #fff;"/>
      <path d="M352.22,118.2c-.63,0-1.15-.49-1.15-1.1.04-1.07,37.37-137.22,39.24-143.11.38-1.21,1.3-1.82,2.11-1.82s1.53.61,1.53,1.82c0,1.03-7.38,27.7-16.41,59.26-9.03,31.56-18.16,63.59-20.29,71.17-2.13,7.59-4.39,13.79-5.03,13.79h0Z" style="fill: #fff;"/>
      <path d="M406.3,116.88c-.35,0-.53-.4-.53-1.23,0-2.8,25.16-45.03,26.95-45.32h.06c.66.67-2.04,6.52-6,13-3.96,6.48-9.82,16.64-13.01,22.58-3.85,7.18-6.43,10.94-7.48,10.96h0Z" style="fill: #fff;"/>
      <path d="M481.2,114.5h-.02c0-2.33,107.48-110.09,110.3-110.62h0,.05c.57.58.74,1.22.37,1.43-.37.21-25.43,25.19-55.69,55.53-29.75,29.82-54.19,53.67-55,53.68h0Z" style="fill: #fff;"/>
      <path d="M511.58,112.26c-.46,0-.83-.64-.83-1.43s12.81-13.09,28.46-27.35c61.39-55.89,82.5-75.35,140.17-129.11,98.21-91.57,132.43-123.57,154.32-144.27,9.48-8.96,15.11-13.96,18.52-16.38h5.55c.23.38.44.76.44,1.02,0,.64-14.81,14.83-32.9,31.55C684.04-43.24,635.93.96,583.89,48.14c-48.1,43.61-71.22,64.11-72.31,64.11h0Z" style="fill: #fff;"/>
      <path d="M196.52,101.11c-.51-.05-1.45-.96-2.41-2.43-1.27-1.96-14.44-25.36-29.28-52.01-14.83-26.65-29.27-52.41-32.07-57.25-3.24-5.59-4.59-9.32-3.69-10.22.31-.31.59-.54.91-.54,1.43.05,3.93,4.58,15.61,26.27,5.96,11.07,20.04,36.87,31.29,57.34,11.25,20.47,20.25,37.83,20,38.59-.06.19-.19.27-.36.26h0Z" style="fill: #fff;"/>
      <path d="M565.69,100.09c-.18,0-.24-.15-.24-.36,0-.98,42.81-34.42,81.33-63.5,19.93-15.05,46.53-35.43,59.14-45.31,34.72-27.19,47.38-37.04,76.91-59.81,14.88-11.48,40.86-31.61,57.72-44.73,16.86-13.12,38.09-29.55,47.18-36.53,9.09-6.97,25.63-19.75,36.75-28.41,6.2-4.82,23.28-17.92,35.99-27.74h7.07c-18.71,14.34-39.58,30.3-50.92,39.03-20.34,15.65-67.9,52.19-105.72,81.2-37.82,29.02-80.06,61.56-93.89,72.33-13.82,10.77-37.45,28.79-52.49,40.05-15.04,11.26-43.12,32.51-62.4,47.24-28.43,21.72-35.18,26.71-36.42,26.53h0Z" style="fill: #fff;"/>
      <path d="M508.2,98.73c-.33,0-.11-.62.52-1.71,2.44-4.17,85.35-83.34,87.79-83.87h.04c1.21.76-9.4,11.37-58.25,58.21-20.77,19.92-28.93,27.41-30.11,27.36Z" style="fill: #fff;"/>
      <path d="M468.49,86.92c-.34,0-.62-.55-.62-1.22s11.15-15.26,24.77-32.43c13.62-17.17,35.68-45.13,49.02-62.14,13.34-17.01,25.23-30.93,26.42-30.93,1.53,0,1.75.55.72,1.87-31.54,40.4-99.39,124.86-100.31,124.86h0Z" style="fill: #fff;"/>
      <path d="M564.38,86.44c-.32,0-.39-.26-.39-.65,0-1.29,44.78-39.4,47.43-40.37.55-.21.98-.3,1.25-.3,2.22,0-5.02,6.82-22.43,21.16-19.47,16.03-24.57,20.15-25.85,20.16h0Z" style="fill: #fff;"/>
      <path d="M92.11,75.66c-.69.06-11.16-10.05-23.55-22.74C39.12,22.77,33.92,17.07,34.95,16.03h.06c.87,0,8.29,7.04,16.85,16.01,8.83,9.26,21.67,22.7,28.52,29.88,6.85,7.18,12.14,13.36,11.76,13.75h-.02s0-.01,0-.01Z" style="fill: #fff;"/>
      <path d="M263.11,75.21c-.38,0-.94-1.49-1.41-3.95-.63-3.28-4.1-21.39-7.7-40.25-3.61-18.86-12.18-63.16-19.06-98.45-6.87-35.29-12.5-64.77-12.5-65.52,0-.37.17-.56.44-.51.27.04.66.25,1.07.67.83.84,6.1,25.29,11.71,54.34,24.7,127.86,28.62,149.5,27.76,153.16-.08.35-.19.51-.31.5h0Z" style="fill: #fff;"/>
      <path d="M238.97,70.52c-.83,0-3.21-5.2-5.28-11.56-2.07-6.35-10.72-34.7-19.22-62.99-8.5-28.29-15.88-52.55-16.42-53.89-.74-1.89.32-3.75,1.49-3.81.46,0,.93.22,1.32.86.45.74,9.15,29.55,19.33,64.02,10.18,34.48,18.91,63.74,19.4,65.03.49,1.29.21,2.34-.62,2.34h0Z" style="fill: #fff;"/>
      <path d="M513.83,62.7c-.08,0-.12,0-.12-.09,0-1.71,94.85-105.39,96.41-105.39.78,0,1.2.63.93,1.41-.57,1.63-82.24,90.33-91.29,99.16-2.91,2.83-5.36,4.85-5.92,4.92h0Z" style="fill: #fff;"/>
      <path d="M431.33,48.04c-.3,0-.43-.5-.43-1.42,0-2.13,3.69-9.32,22.53-43.92,21.95-40.32,28.48-51.64,30.05-51.55.2,0,.32.2.37.52.27,1.44-9.29,20.22-21.25,41.73-11.96,21.51-23.7,42.63-26.1,46.93-2.98,5.36-4.52,7.71-5.19,7.7h0Z" style="fill: #fff;"/>
      <path d="M90.14,44.77c-.59.07-1.94-.8-3.24-2.15-4.01-4.15-33.01-37.19-50.68-57.75C27.71-25.01,12.38-42.48,2.13-53.96c-10.25-11.48-27.9-31.61-39.21-44.73-34.86-40.42-44.68-51.27-70.87-78.27-8.45-8.72-16.97-17.8-27.51-29.31h4.11c8.39,9.1,16.56,17.78,26.96,28.57,21.94,22.78,34.84,37.1,65.14,72.31,10.94,12.71,32.54,37.6,48,55.32C24.22-32.37,47.85-5.23,61.27,10.22c13.42,15.45,25.62,29.36,27.1,30.9,1.49,1.54,2.38,3.13,1.97,3.55-.05.05-.12.08-.21.1h0Z" style="fill: #fff;"/>
      <path d="M23.62,31.72c-.98.05-3.23-1.57-6.79-4.82C-74.78-56.92-100.59-81.45-98.86-83.1c.02-.05.03-.05.08-.05,1.1-.15,9.38,6.82,18.84,15.85,9.76,9.32,37.16,34.92,60.88,56.89C4.66,11.56,24.12,30.04,24.18,30.65c.07.69-.11,1.04-.56,1.05h0s0,.01,0,.01Z" style="fill: #fff;"/>
      <path d="M355.42,27.3c-.62,0-.86-1.17-.55-2.61.31-1.44,3.61-18.71,7.33-38.39,3.72-19.68,7.81-41.31,9.1-48.08,1.29-6.76,3-12.3,3.8-12.3s1.13,1.51.74,3.35c-.38,1.85-4.88,24.65-9.99,50.69-5.11,26.03-9.8,47.33-10.42,47.33h0Z" style="fill: #fff;"/>
      <path d="M77.77,9.4c-.68,0-21.88-26-47.1-57.77C-22.67-115.55-38.8-135.67-53.31-153.1c-5.8-6.97-23.15-28.39-38.55-47.6-1.98-2.47-2.65-3.29-4.47-5.57h7.04C10.04-81.83,34.83-50.5,64.57-11.65c14.05,18.36,15.74,21.05,13.2,21.05h0Z" style="fill: #fff;"/>
      <path d="M261.68,4.44c-.48,0-.83-.49-.83-1.29-.05-3.26-17.69-119.35-31.72-209.42h3.49c1.01,6.74,2.35,15.48,3.19,21.12,4.87,32.8,10.9,73.05,13.39,89.45,13.42,88.32,14.78,98.87,13.01,99.97-.18.11-.36.17-.52.17Z" style="fill: #fff;"/>
      <path d="M231.47.58s-.07-.05-.1-.12c-2.68-7.36-22.88-93.88-21.83-93.53,1.74.58,23.45,88.79,22.65,92.04-.24,1-.53,1.63-.71,1.61Z" style="fill: #fff;"/>
    </g>
  </g>
  <g id="_2025_Lightspeed_Systems_Stacked_Rev" data-name="2025_Lightspeed_Systems_Stacked_Rev">
    <path d="M316.82,266.72c.05,7.55-2.84,14.68-8.18,20.06-5.32,5.38-12.43,8.37-19.99,8.41h-.16c-7.5,0-14.57-2.9-19.91-8.18-5.38-5.32-8.38-12.42-8.42-19.97-.09-15.63,12.58-28.41,28.22-28.5h35.24c13.35-.08,24.17-11,24.09-24.34-.04-6.46-2.58-12.52-7.18-17.06-4.56-4.51-10.59-6.99-17.01-6.99h-.14c-6.46.04-12.52,2.58-17.07,7.18-4.5,4.55-6.99,10.56-7.01,16.94v10.88h-4.14v-10.67c-.05-7.55,2.87-14.68,8.2-20.06,5.32-5.38,12.43-8.37,19.99-8.41h.16c7.5,0,14.57,2.9,19.91,8.18,5.38,5.32,8.36,12.42,8.4,19.97.09,15.63-12.55,28.41-28.2,28.5h-35.24c-13.35.08-24.16,11-24.09,24.34.04,6.46,2.58,12.52,7.18,17.06,4.56,4.51,10.59,6.99,17.01,6.99h.14c6.46-.04,12.53-2.58,17.08-7.18,4.55-4.6,7.01-10.68,6.98-17.14v-10.68h4.14v10.67h0ZM303.94,233.89h4.14v-19.47c-.05-8.51,6.85-15.47,15.37-15.52h.09c8.47,0,15.39,6.86,15.43,15.35.02,4.13-1.56,8.01-4.46,10.94-2.9,2.93-6.77,4.56-10.87,4.58h-10.93v4.13h10.94c5.23-.03,10.13-2.09,13.81-5.8,3.67-3.72,5.67-8.65,5.64-13.87-.06-10.79-8.87-19.52-19.67-19.45-10.75.06-19.47,8.82-19.47,19.55v19.58h0ZM299.3,233.89v-4.14h-39.13v4.14h39.13ZM290.56,225.15v-4.14h-21.64v4.14h21.64ZM321.43,256.06v4.14h21.64v-4.14h-21.64ZM288.38,247.3c-5.23.03-10.13,2.09-13.81,5.81s-5.69,8.64-5.66,13.87c.06,10.75,8.84,19.45,19.58,19.45h.12c10.75-.06,19.45-8.82,19.46-19.55v-19.58h-4.14v19.47c.05,8.51-6.84,15.47-15.35,15.52h-.09c-8.47,0-15.39-6.86-15.43-15.35-.02-4.13,1.56-8.01,4.46-10.94,2.9-2.93,6.77-4.56,10.87-4.58h10.9v-4.14h-10.93ZM312.68,225.15h4.14v-10.82c0-3.68,3.01-6.69,6.69-6.69s6.69,3,6.69,6.69-3,6.68-6.69,6.68h-2.07v4.14h2.07c5.97,0,10.82-4.85,10.82-10.82s-4.86-10.82-10.82-10.82-10.83,4.86-10.83,10.82v10.82ZM312.68,247.3v4.14h39.15v-4.14h-39.15ZM299.3,256.06h-4.14v10.82c0,3.68-2.98,6.69-6.66,6.69s-6.69-3-6.69-6.69,3-6.68,6.69-6.68h2.05v-4.14h-2.05c-5.97,0-10.82,4.85-10.82,10.82s4.86,10.82,10.82,10.82,10.8-4.85,10.8-10.82v-10.82Z" style="fill: #00aed6;"/>
    <g>
      <path d="M183.48,311.05h5.85v31.62h12.91v5.27h-18.76v-36.88h0Z" style="fill: #fff;"/>
      <path d="M208.13,310.05c2.01,0,3.59,1.58,3.59,3.59s-1.58,3.59-3.59,3.59-3.59-1.58-3.59-3.59,1.58-3.59,3.59-3.59ZM205.28,320.42h5.75v27.5h-5.75v-27.5Z" style="fill: #fff;"/>
      <path d="M220.01,350.99c1,.58,4.21,2.11,8.06,2.11,4.59,0,8.64-1.69,8.64-6.9v-1.84c-.64.9-3.37,4.27-8.8,4.27-7.91,0-13.17-5.96-13.17-14.38s5.48-14.49,13.27-14.49c5.17,0,8.12,3.1,8.96,4.38v-3.69h5.43v23.87c0,10.32-6.27,13.76-14.28,13.76-3.69,0-7.54-1.21-9.96-2.63l1.84-4.42v-.02ZM228.66,324.86c-4.74,0-8.17,3.8-8.17,9.32s3.53,9.32,8.22,9.32c4.96,0,8.17-3.89,8.17-9.32s-3.48-9.32-8.22-9.32Z" style="fill: #fff;"/>
      <path d="M269.98,331.39v16.54h-5.69v-17.02c0-3.8-2.37-6.01-5.53-6.01-3.63,0-6.06,2.69-6.06,6.43v16.6h-5.75v-38.1h5.75v14.17c1.21-2.16,4-4.27,7.69-4.27,7.11,0,9.59,5.64,9.59,11.65h0Z" style="fill: #fff;"/>
      <path d="M275.72,314.69h5.69v5.75h5.58v4.74h-5.58v12.8c0,4.27,1.63,5.22,4.69,5.22.47,0,1.11-.06,1.11-.06v4.96s-1,.21-2.8.21c-6.69,0-8.7-4.48-8.7-11.22v-11.91h-3.06v-4.74h3.06v-5.75h0Z" style="fill: #fff;"/>
      <path d="M292.83,340.29c1.26,1.84,3.16,3.59,6.58,3.59,2.42,0,4.21-1.21,4.21-3.42,0-5.27-13.38-3.37-13.38-12.91,0-4.85,4.11-7.8,9.43-7.8s7.91,3.01,8.96,5.11l-3.95,2.63c-.79-1.26-2.27-3.06-5.32-3.06-2.11,0-3.69,1.11-3.69,3.01,0,5.27,13.44,3.06,13.44,12.75,0,5.11-4.32,8.44-9.96,8.44s-8.53-3.01-9.91-5.48l3.59-2.84v-.02Z" style="fill: #fff;"/>
      <path d="M311.98,320.42h5.43v3.63c.74-1,3.53-4.32,8.85-4.32,7.85,0,13.44,6.01,13.44,14.38s-5.22,14.49-13.06,14.49c-5.22,0-8.17-3.16-8.91-4.32v13.49h-5.75v-37.36h0ZM325.73,343.51c4.79,0,8.17-3.85,8.17-9.38s-3.53-9.27-8.22-9.27c-5.06,0-8.17,4.21-8.17,9.27,0,5.96,3.63,9.38,8.22,9.38Z" style="fill: #fff;"/>
      <path d="M356.05,319.74c8.33,0,13.23,5.75,13.23,14.38,0,.47,0,.94-.05,1.43h-20.71c.11,4.9,3.63,8.06,8.53,8.06,4.16,0,6.54-2.32,7.59-3.85l3.8,2.84c-1.32,2.27-4.96,6.01-11.49,6.01-8.59,0-14.28-6.01-14.28-14.34s5.85-14.55,13.38-14.55h0ZM363.43,331.6c-.21-4.53-3.37-7.07-7.33-7.07s-7.01,2.74-7.37,7.07h14.7Z" style="fill: #fff;"/>
      <path d="M385.09,319.74c8.33,0,13.23,5.75,13.23,14.38,0,.47,0,.94-.05,1.43h-20.71c.11,4.9,3.63,8.06,8.53,8.06,4.16,0,6.54-2.32,7.59-3.85l3.8,2.84c-1.32,2.27-4.96,6.01-11.49,6.01-8.59,0-14.28-6.01-14.28-14.34s5.85-14.55,13.38-14.55h0ZM392.46,331.6c-.21-4.53-3.37-7.07-7.33-7.07s-7.01,2.74-7.37,7.07h14.7Z" style="fill: #fff;"/>
      <path d="M428.51,347.94h-5.43v-3.59c-.74.94-3.53,4.27-8.85,4.27-7.86,0-13.44-5.96-13.44-14.38s5.22-14.49,13.07-14.49c5.22,0,8.17,3.16,8.91,4.38v-14.28h5.75v38.1h0ZM414.76,324.86c-4.79,0-8.17,3.89-8.17,9.43s3.53,9.27,8.22,9.27c5.06,0,8.17-4.21,8.17-9.27,0-6.01-3.63-9.43-8.22-9.43Z" style="fill: #fff;"/>
      <path d="M211,390.66c1,2.63,3.16,5.22,7.22,5.22,3.32,0,5.53-1.84,5.53-4.96,0-7.8-16.6-6.05-16.6-17.91,0-5.75,4.27-9.96,11.07-9.96s10.02,4.96,10.9,7.54l-4.85,2.16c-.85-1.79-2.53-4.32-6.17-4.32-3.27,0-5.11,2.01-5.11,4.53,0,7.27,16.71,5.96,16.71,17.55,0,6.17-4.48,10.81-11.75,10.81s-10.8-5.06-11.91-8.33l4.96-2.31h0Z" style="fill: #fff;"/>
      <path d="M237.67,410.06l3.9-9.91-10.91-27.03h6.17l7.43,20.02,7.33-20.02h6.01l-14.38,36.94h-5.54Z" style="fill: #fff;"/>
      <path d="M260.92,392.99c1.26,1.84,3.16,3.59,6.58,3.59,2.42,0,4.21-1.21,4.21-3.42,0-5.27-13.38-3.37-13.38-12.91,0-4.85,4.11-7.8,9.43-7.8s7.91,3.01,8.96,5.11l-3.95,2.63c-.79-1.26-2.27-3.06-5.32-3.06-2.11,0-3.69,1.11-3.69,3.01,0,5.27,13.44,3.06,13.44,12.75,0,5.11-4.32,8.44-9.96,8.44s-8.53-3.01-9.91-5.48l3.59-2.84v-.02Z" style="fill: #fff;"/>
      <path d="M281.9,367.37h5.69v5.75h5.58v4.74h-5.58v12.8c0,4.27,1.63,5.22,4.69,5.22.47,0,1.11-.06,1.11-.06v4.96s-1,.21-2.8.21c-6.69,0-8.7-4.48-8.7-11.22v-11.91h-3.06v-4.74h3.06v-5.75h0Z" style="fill: #fff;"/>
      <path d="M307.99,372.43c8.33,0,13.23,5.75,13.23,14.38,0,.47,0,.94-.05,1.43h-20.71c.11,4.9,3.63,8.06,8.54,8.06,4.16,0,6.54-2.32,7.59-3.85l3.8,2.84c-1.32,2.27-4.96,6.01-11.49,6.01-8.59,0-14.28-6.01-14.28-14.34s5.85-14.55,13.38-14.55h0ZM315.36,384.29c-.21-4.53-3.37-7.07-7.33-7.07s-7.01,2.74-7.37,7.07h14.7Z" style="fill: #fff;"/>
      <path d="M363.23,400.62h-5.69v-16.49c0-4.27-1.84-6.54-5.27-6.54-3.21,0-5.58,2.37-5.58,6.58v16.44h-5.75v-17.02c0-3.74-2.01-6.01-5.27-6.01s-5.53,2.53-5.53,6.48v16.54h-5.75v-27.5h5.64v3.59c1-2.11,3.69-4.27,7.43-4.27s6.58,1.79,7.91,4.58c1.63-2.9,4.69-4.58,8.48-4.58,6.22,0,9.38,4.27,9.38,10.22v17.99Z" style="fill: #fff;"/>
      <path d="M370.37,392.99c1.26,1.84,3.16,3.59,6.58,3.59,2.42,0,4.21-1.21,4.21-3.42,0-5.27-13.38-3.37-13.38-12.91,0-4.85,4.11-7.8,9.43-7.8s7.91,3.01,8.96,5.11l-3.95,2.63c-.79-1.26-2.27-3.06-5.32-3.06-2.11,0-3.69,1.11-3.69,3.01,0,5.27,13.44,3.06,13.44,12.75,0,5.11-4.32,8.44-9.96,8.44s-8.54-3.01-9.91-5.48l3.59-2.84v-.02Z" style="fill: #fff;"/>
      <path d="M394.08,360.29c3.93,0,6.36,2.74,6.36,6.17s-2.4,6.21-6.27,6.21-6.3-2.7-6.3-6.18,2.46-6.21,6.21-6.21h0ZM394.14,371.5c3.19,0,5-2.12,5-5.04s-1.84-5-5.07-5-4.92,2.12-4.92,5.04,1.84,5,4.97,5h0ZM393.47,367.2v2.61h-1.26v-6.63h2.06c1.47,0,2.28.77,2.28,2,0,.86-.46,1.47-1.01,1.73l1.26,2.92h-1.32l-1.01-2.61h-.99ZM393.47,364.32v1.75h.93c.52,0,.8-.37.8-.9s-.31-.86-.8-.86h-.93Z" style="fill: #fff;"/>
    </g>
  </g>
</svg>
